<svg version="1.1" xmlns="http://www.w3.org/2000/svg" xmlns:xlink="http://www.w3.org/1999/xlink" width="1899" height="963"><defs/><g><g transform="translate(-1246,-350) scale(1,1)"><rect fill="#C0C0C0" stroke="none" x="1999" y="799" width="208" height="64" opacity="0.2"/></g><g transform="translate(-1246,-350) scale(1,1)"><rect fill="#ffffff" stroke="none" x="1992" y="792" width="208" height="64"/></g><g transform="translate(-1246,-350) scale(1,1)"><path fill="none" stroke="#000000" d="M 1992 792 L 2200 792 L 2200 856 L 1992 856 L 1992 792 Z Z" stroke-miterlimit="10"/></g><g transform="translate(-1246,-350) scale(1,1)"><path fill="none" stroke="#000000" d="M 1992 817 L 2200 817" stroke-miterlimit="10"/></g><g transform="translate(-1246,-350) scale(1,1)"><path fill="none" stroke="#000000" d="M 1992 827 L 2200 827" stroke-miterlimit="10"/></g><g transform="translate(-1246,-350) scale(1,1)"><g><path fill="none" stroke="none"/><text fill="#000000" stroke="none" font-family="Arial" font-size="13px" font-style="normal" font-weight="bold" text-decoration="none" x="2052.6455078125" y="811.5">GameManager</text></g></g><g transform="translate(-1246,-350) scale(1,1)"><rect fill="#C0C0C0" stroke="none" x="2431" y="807" width="136" height="48" opacity="0.2"/></g><g transform="translate(-1246,-350) scale(1,1)"><rect fill="#ffffff" stroke="none" x="2424" y="800" width="136" height="48"/></g><g transform="translate(-1246,-350) scale(1,1)"><path fill="none" stroke="#000000" d="M 2424 800 L 2560 800 L 2560 848 L 2424 848 L 2424 800 Z Z" stroke-miterlimit="10"/></g><g transform="translate(-1246,-350) scale(1,1)"><path fill="none" stroke="#000000" d="M 2424 825 L 2560 825" stroke-miterlimit="10"/></g><g transform="translate(-1246,-350) scale(1,1)"><path fill="none" stroke="#000000" d="M 2424 835 L 2560 835" stroke-miterlimit="10"/></g><g transform="translate(-1246,-350) scale(1,1)"><g><path fill="none" stroke="none"/><text fill="#000000" stroke="none" font-family="Arial" font-size="13px" font-style="italic" font-weight="bold" text-decoration="none" x="2464" y="819.5">Character</text></g></g><g transform="translate(-1246,-350) scale(1,1)"><rect fill="#C0C0C0" stroke="none" x="2367" y="967" width="112" height="44" opacity="0.2"/></g><g transform="translate(-1246,-350) scale(1,1)"><rect fill="#ffffff" stroke="none" x="2360" y="960" width="112" height="44"/></g><g transform="translate(-1246,-350) scale(1,1)"><path fill="none" stroke="#000000" d="M 2360 960 L 2472 960 L 2472 1004 L 2360 1004 L 2360 960 Z Z" stroke-miterlimit="10"/></g><g transform="translate(-1246,-350) scale(1,1)"><path fill="none" stroke="#000000" d="M 2360 985 L 2472 985" stroke-miterlimit="10"/></g><g transform="translate(-1246,-350) scale(1,1)"><path fill="none" stroke="#000000" d="M 2360 995 L 2472 995" stroke-miterlimit="10"/></g><g transform="translate(-1246,-350) scale(1,1)"><g><path fill="none" stroke="none"/><text fill="#000000" stroke="none" font-family="Arial" font-size="13px" font-style="normal" font-weight="bold" text-decoration="none" x="2397.575927734375" y="979.5">Player</text></g></g><g transform="translate(-1246,-350) scale(1,1)"><rect fill="#C0C0C0" stroke="none" x="2519" y="967" width="112" height="44" opacity="0.2"/></g><g transform="translate(-1246,-350) scale(1,1)"><rect fill="#ffffff" stroke="none" x="2512" y="960" width="112" height="44"/></g><g transform="translate(-1246,-350) scale(1,1)"><path fill="none" stroke="#000000" d="M 2512 960 L 2624 960 L 2624 1004 L 2512 1004 L 2512 960 Z Z" stroke-miterlimit="10"/></g><g transform="translate(-1246,-350) scale(1,1)"><path fill="none" stroke="#000000" d="M 2512 985 L 2624 985" stroke-miterlimit="10"/></g><g transform="translate(-1246,-350) scale(1,1)"><path fill="none" stroke="#000000" d="M 2512 995 L 2624 995" stroke-miterlimit="10"/></g><g transform="translate(-1246,-350) scale(1,1)"><g><path fill="none" stroke="none"/><text fill="#000000" stroke="none" font-family="Arial" font-size="13px" font-style="normal" font-weight="bold" text-decoration="none" x="2547.77001953125" y="979.5">Enemy</text></g></g><g transform="translate(-1246,-350) scale(1,1)"><rect fill="#C0C0C0" stroke="none" x="2303" y="663" width="112" height="44" opacity="0.2"/></g><g transform="translate(-1246,-350) scale(1,1)"><rect fill="#ffffff" stroke="none" x="2296" y="656" width="112" height="44"/></g><g transform="translate(-1246,-350) scale(1,1)"><path fill="none" stroke="#000000" d="M 2296 656 L 2408 656 L 2408 700 L 2296 700 L 2296 656 Z Z" stroke-miterlimit="10"/></g><g transform="translate(-1246,-350) scale(1,1)"><path fill="none" stroke="#000000" d="M 2296 681 L 2408 681" stroke-miterlimit="10"/></g><g transform="translate(-1246,-350) scale(1,1)"><path fill="none" stroke="#000000" d="M 2296 691 L 2408 691" stroke-miterlimit="10"/></g><g transform="translate(-1246,-350) scale(1,1)"><g><path fill="none" stroke="none"/><text fill="#000000" stroke="none" font-family="Arial" font-size="13px" font-style="normal" font-weight="bold" text-decoration="none" x="2322.385009765625" y="675.5">Transform</text></g></g><g transform="translate(-1246,-350) scale(1,1)"><rect fill="#C0C0C0" stroke="none" x="2439" y="663" width="111" height="44" opacity="0.2"/></g><g transform="translate(-1246,-350) scale(1,1)"><rect fill="#ffffff" stroke="none" x="2432" y="656" width="111" height="44"/></g><g transform="translate(-1246,-350) scale(1,1)"><path fill="none" stroke="#000000" d="M 2432 656 L 2543 656 L 2543 700 L 2432 700 L 2432 656 Z Z" stroke-miterlimit="10"/></g><g transform="translate(-1246,-350) scale(1,1)"><path fill="none" stroke="#000000" d="M 2432 681 L 2543 681" stroke-miterlimit="10"/></g><g transform="translate(-1246,-350) scale(1,1)"><path fill="none" stroke="#000000" d="M 2432 691 L 2543 691" stroke-miterlimit="10"/></g><g transform="translate(-1246,-350) scale(1,1)"><g><path fill="none" stroke="none"/><text fill="#000000" stroke="none" font-family="Arial" font-size="13px" font-style="normal" font-weight="bold" text-decoration="none" x="2458.5927734375" y="675.5">Rigidbody</text></g></g><g transform="translate(-1246,-350) scale(1,1)"><rect fill="#C0C0C0" stroke="none" x="2567" y="663" width="112" height="44" opacity="0.2"/></g><g transform="translate(-1246,-350) scale(1,1)"><rect fill="#ffffff" stroke="none" x="2560" y="656" width="112" height="44"/></g><g transform="translate(-1246,-350) scale(1,1)"><path fill="none" stroke="#000000" d="M 2560 656 L 2672 656 L 2672 700 L 2560 700 L 2560 656 Z Z" stroke-miterlimit="10"/></g><g transform="translate(-1246,-350) scale(1,1)"><path fill="none" stroke="#000000" d="M 2560 681 L 2672 681" stroke-miterlimit="10"/></g><g transform="translate(-1246,-350) scale(1,1)"><path fill="none" stroke="#000000" d="M 2560 691 L 2672 691" stroke-miterlimit="10"/></g><g transform="translate(-1246,-350) scale(1,1)"><g><path fill="none" stroke="none"/><text fill="#000000" stroke="none" font-family="Arial" font-size="13px" font-style="normal" font-weight="bold" text-decoration="none" x="2589.990478515625" y="675.5">Animator</text></g></g><g transform="translate(-1246,-350) scale(1,1)"><rect fill="#C0C0C0" stroke="none" x="2855" y="807" width="136" height="48" opacity="0.2"/></g><g transform="translate(-1246,-350) scale(1,1)"><rect fill="#ffffff" stroke="none" x="2848" y="800" width="136" height="48"/></g><g transform="translate(-1246,-350) scale(1,1)"><path fill="none" stroke="#000000" d="M 2848 800 L 2984 800 L 2984 848 L 2848 848 L 2848 800 Z Z" stroke-miterlimit="10"/></g><g transform="translate(-1246,-350) scale(1,1)"><path fill="none" stroke="#000000" d="M 2848 825 L 2984 825" stroke-miterlimit="10"/></g><g transform="translate(-1246,-350) scale(1,1)"><path fill="none" stroke="#000000" d="M 2848 835 L 2984 835" stroke-miterlimit="10"/></g><g transform="translate(-1246,-350) scale(1,1)"><g><path fill="none" stroke="none"/><text fill="#000000" stroke="none" font-family="Arial" font-size="13px" font-style="italic" font-weight="bold" text-decoration="none" x="2894.5" y="819.5">Collider</text></g></g><g transform="translate(-1246,-350) scale(1,1)"><rect fill="#C0C0C0" stroke="none" x="2855" y="663" width="135" height="90" opacity="0.2"/></g><g transform="translate(-1246,-350) scale(1,1)"><rect fill="#ffffff" stroke="none" x="2848" y="656" width="135" height="90"/></g><g transform="translate(-1246,-350) scale(1,1)"><path fill="none" stroke="#000000" d="M 2848 656 L 2983 656 L 2983 746 L 2848 746 L 2848 656 Z Z" stroke-miterlimit="10"/></g><g transform="translate(-1246,-350) scale(1,1)"><path fill="none" stroke="#000000" d="M 2848 694 L 2983 694" stroke-miterlimit="10"/></g><g transform="translate(-1246,-350) scale(1,1)"><g><path fill="none" stroke="none"/><text fill="#000000" stroke="none" font-family="Arial" font-size="13px" font-style="normal" font-weight="normal" text-decoration="none" x="2872.135986328125" y="673.5">«enumeration»</text></g></g><g transform="translate(-1246,-350) scale(1,1)"><g><path fill="none" stroke="none"/><text fill="#000000" stroke="none" font-family="Arial" font-size="13px" font-style="normal" font-weight="bold" text-decoration="none" x="2868.171875" y="688.5">ColliderTypeInfo</text></g></g><g transform="translate(-1246,-350) scale(1,1)"><g><path fill="none" stroke="none"/><text fill="#000000" stroke="none" font-family="Arial" font-size="13px" font-style="normal" font-weight="normal" text-decoration="none" x="2853" y="711.5">COLLIDER_POINT</text></g></g><g transform="translate(-1246,-350) scale(1,1)"><g><path fill="none" stroke="none"/><text fill="#000000" stroke="none" font-family="Arial" font-size="13px" font-style="normal" font-weight="normal" text-decoration="none" x="2853" y="726.5">COLLIDER_BOX</text></g></g><g transform="translate(-1246,-350) scale(1,1)"><g><path fill="none" stroke="none"/><text fill="#000000" stroke="none" font-family="Arial" font-size="13px" font-style="normal" font-weight="normal" text-decoration="none" x="2853" y="741.5">COLLIDE_CIRCLE</text></g></g><g transform="translate(-1246,-350) scale(1,1)"><rect fill="#C0C0C0" stroke="none" x="2871" y="927" width="111" height="48" opacity="0.2"/></g><g transform="translate(-1246,-350) scale(1,1)"><rect fill="#ffffff" stroke="none" x="2864" y="920" width="111" height="48"/></g><g transform="translate(-1246,-350) scale(1,1)"><path fill="none" stroke="#000000" d="M 2864 920 L 2975 920 L 2975 968 L 2864 968 L 2864 920 Z Z" stroke-miterlimit="10"/></g><g transform="translate(-1246,-350) scale(1,1)"><path fill="none" stroke="#000000" d="M 2864 945 L 2975 945" stroke-miterlimit="10"/></g><g transform="translate(-1246,-350) scale(1,1)"><path fill="none" stroke="#000000" d="M 2864 955 L 2975 955" stroke-miterlimit="10"/></g><g transform="translate(-1246,-350) scale(1,1)"><g><path fill="none" stroke="none"/><text fill="#000000" stroke="none" font-family="Arial" font-size="13px" font-style="normal" font-weight="bold" text-decoration="none" x="2882.648681640625" y="939.5">PointCollider</text></g></g><g transform="translate(-1246,-350) scale(1,1)"><rect fill="#C0C0C0" stroke="none" x="2711" y="927" width="112" height="47" opacity="0.2"/></g><g transform="translate(-1246,-350) scale(1,1)"><rect fill="#ffffff" stroke="none" x="2704" y="920" width="112" height="47"/></g><g transform="translate(-1246,-350) scale(1,1)"><path fill="none" stroke="#000000" d="M 2704 920 L 2816 920 L 2816 967 L 2704 967 L 2704 920 Z Z" stroke-miterlimit="10"/></g><g transform="translate(-1246,-350) scale(1,1)"><path fill="none" stroke="#000000" d="M 2704 945 L 2816 945" stroke-miterlimit="10"/></g><g transform="translate(-1246,-350) scale(1,1)"><path fill="none" stroke="#000000" d="M 2704 955 L 2816 955" stroke-miterlimit="10"/></g><g transform="translate(-1246,-350) scale(1,1)"><g><path fill="none" stroke="none"/><text fill="#000000" stroke="none" font-family="Arial" font-size="13px" font-style="normal" font-weight="bold" text-decoration="none" x="2721.352294921875" y="939.5">CircleCollider</text></g></g><g transform="translate(-1246,-350) scale(1,1)"><rect fill="#C0C0C0" stroke="none" x="3031" y="927" width="111" height="48" opacity="0.2"/></g><g transform="translate(-1246,-350) scale(1,1)"><rect fill="#ffffff" stroke="none" x="3024" y="920" width="111" height="48"/></g><g transform="translate(-1246,-350) scale(1,1)"><path fill="none" stroke="#000000" d="M 3024 920 L 3135 920 L 3135 968 L 3024 968 L 3024 920 Z Z" stroke-miterlimit="10"/></g><g transform="translate(-1246,-350) scale(1,1)"><path fill="none" stroke="#000000" d="M 3024 945 L 3135 945" stroke-miterlimit="10"/></g><g transform="translate(-1246,-350) scale(1,1)"><path fill="none" stroke="#000000" d="M 3024 955 L 3135 955" stroke-miterlimit="10"/></g><g transform="translate(-1246,-350) scale(1,1)"><g><path fill="none" stroke="none"/><text fill="#000000" stroke="none" font-family="Arial" font-size="13px" font-style="normal" font-weight="bold" text-decoration="none" x="3046.263671875" y="939.5">BoxCollider</text></g></g><g transform="translate(-1246,-350) scale(1,1)"><rect fill="#C0C0C0" stroke="none" x="2023" y="1199" width="159" height="48" opacity="0.2"/></g><g transform="translate(-1246,-350) scale(1,1)"><rect fill="#ffffff" stroke="none" x="2016" y="1192" width="159" height="48"/></g><g transform="translate(-1246,-350) scale(1,1)"><path fill="none" stroke="#000000" d="M 2016 1192 L 2175 1192 L 2175 1240 L 2016 1240 L 2016 1192 Z Z" stroke-miterlimit="10"/></g><g transform="translate(-1246,-350) scale(1,1)"><path fill="none" stroke="#000000" d="M 2016 1217 L 2175 1217" stroke-miterlimit="10"/></g><g transform="translate(-1246,-350) scale(1,1)"><path fill="none" stroke="#000000" d="M 2016 1227 L 2175 1227" stroke-miterlimit="10"/></g><g transform="translate(-1246,-350) scale(1,1)"><g><path fill="none" stroke="none"/><text fill="#000000" stroke="none" font-family="Arial" font-size="13px" font-style="normal" font-weight="bold" text-decoration="none" x="2075.260498046875" y="1211.5">Engine</text></g></g><g transform="translate(-1246,-350) scale(1,1)"><rect fill="#C0C0C0" stroke="none" x="2359" y="1199" width="144" height="48" opacity="0.2"/></g><g transform="translate(-1246,-350) scale(1,1)"><rect fill="#ffffff" stroke="none" x="2352" y="1192" width="144" height="48"/></g><g transform="translate(-1246,-350) scale(1,1)"><path fill="none" stroke="#000000" d="M 2352 1192 L 2496 1192 L 2496 1240 L 2352 1240 L 2352 1192 Z Z" stroke-miterlimit="10"/></g><g transform="translate(-1246,-350) scale(1,1)"><path fill="none" stroke="#000000" d="M 2352 1217 L 2496 1217" stroke-miterlimit="10"/></g><g transform="translate(-1246,-350) scale(1,1)"><path fill="none" stroke="#000000" d="M 2352 1227 L 2496 1227" stroke-miterlimit="10"/></g><g transform="translate(-1246,-350) scale(1,1)"><g><path fill="none" stroke="none"/><text fill="#000000" stroke="none" font-family="Arial" font-size="13px" font-style="italic" font-weight="bold" text-decoration="none" x="2381" y="1211.5">SpriteRenderer</text></g></g><g transform="translate(-1246,-350) scale(1,1)"><rect fill="#C0C0C0" stroke="none" x="1711" y="1199" width="152" height="52" opacity="0.2"/></g><g transform="translate(-1246,-350) scale(1,1)"><rect fill="#ffffff" stroke="none" x="1704" y="1192" width="152" height="52"/></g><g transform="translate(-1246,-350) scale(1,1)"><path fill="none" stroke="#000000" d="M 1704 1192 L 1856 1192 L 1856 1244 L 1704 1244 L 1704 1192 Z Z" stroke-miterlimit="10"/></g><g transform="translate(-1246,-350) scale(1,1)"><path fill="none" stroke="#000000" d="M 1704 1217 L 1856 1217" stroke-miterlimit="10"/></g><g transform="translate(-1246,-350) scale(1,1)"><path fill="none" stroke="#000000" d="M 1704 1227 L 1856 1227" stroke-miterlimit="10"/></g><g transform="translate(-1246,-350) scale(1,1)"><g><path fill="none" stroke="none"/><text fill="#000000" stroke="none" font-family="Arial" font-size="13px" font-style="italic" font-weight="bold" text-decoration="none" x="1736.5" y="1211.5">PhysicsEngine</text></g></g><g transform="translate(-1246,-350) scale(1,1)"><rect fill="#C0C0C0" stroke="none" x="1471" y="1199" width="160" height="52" opacity="0.2"/></g><g transform="translate(-1246,-350) scale(1,1)"><rect fill="#ffffff" stroke="none" x="1464" y="1192" width="160" height="52"/></g><g transform="translate(-1246,-350) scale(1,1)"><path fill="none" stroke="#000000" d="M 1464 1192 L 1624 1192 L 1624 1244 L 1464 1244 L 1464 1192 Z Z" stroke-miterlimit="10"/></g><g transform="translate(-1246,-350) scale(1,1)"><path fill="none" stroke="#000000" d="M 1464 1217 L 1624 1217" stroke-miterlimit="10"/></g><g transform="translate(-1246,-350) scale(1,1)"><path fill="none" stroke="#000000" d="M 1464 1227 L 1624 1227" stroke-miterlimit="10"/></g><g transform="translate(-1246,-350) scale(1,1)"><g><path fill="none" stroke="none"/><text fill="#000000" stroke="none" font-family="Arial" font-size="13px" font-style="normal" font-weight="bold" text-decoration="none" x="1481.497802734375" y="1211.5">SimplePhysicsEngine</text></g></g><g transform="translate(-1246,-350) scale(1,1)"><rect fill="#C0C0C0" stroke="none" x="2015" y="487" width="160" height="44" opacity="0.2"/></g><g transform="translate(-1246,-350) scale(1,1)"><rect fill="#ffffff" stroke="none" x="2008" y="480" width="160" height="44"/></g><g transform="translate(-1246,-350) scale(1,1)"><path fill="none" stroke="#000000" d="M 2008 480 L 2168 480 L 2168 524 L 2008 524 L 2008 480 Z Z" stroke-miterlimit="10"/></g><g transform="translate(-1246,-350) scale(1,1)"><path fill="none" stroke="#000000" d="M 2008 505 L 2168 505" stroke-miterlimit="10"/></g><g transform="translate(-1246,-350) scale(1,1)"><path fill="none" stroke="#000000" d="M 2008 515 L 2168 515" stroke-miterlimit="10"/></g><g transform="translate(-1246,-350) scale(1,1)"><g><path fill="none" stroke="none"/><text fill="#000000" stroke="none" font-family="Arial" font-size="13px" font-style="normal" font-weight="bold" text-decoration="none" x="2072.4609375" y="499.5">Level</text></g></g><g transform="translate(-1246,-350) scale(1,1)"><rect fill="#C0C0C0" stroke="none" x="2047" y="375" width="96" height="44" opacity="0.2"/></g><g transform="translate(-1246,-350) scale(1,1)"><rect fill="#ffffff" stroke="none" x="2040" y="368" width="96" height="44"/></g><g transform="translate(-1246,-350) scale(1,1)"><path fill="none" stroke="#000000" d="M 2040 368 L 2136 368 L 2136 412 L 2040 412 L 2040 368 Z Z" stroke-miterlimit="10"/></g><g transform="translate(-1246,-350) scale(1,1)"><path fill="none" stroke="#000000" d="M 2040 393 L 2136 393" stroke-miterlimit="10"/></g><g transform="translate(-1246,-350) scale(1,1)"><path fill="none" stroke="#000000" d="M 2040 403 L 2136 403" stroke-miterlimit="10"/></g><g transform="translate(-1246,-350) scale(1,1)"><g><path fill="none" stroke="none"/><text fill="#000000" stroke="none" font-family="Arial" font-size="13px" font-style="normal" font-weight="bold" text-decoration="none" x="2077.5263671875" y="387.5">Tile</text></g></g><g transform="translate(-1246,-350) scale(1,1)"><rect fill="#C0C0C0" stroke="none" x="1791" y="367" width="159" height="56" opacity="0.2"/></g><g transform="translate(-1246,-350) scale(1,1)"><rect fill="#ffffff" stroke="none" x="1784" y="360" width="159" height="56"/></g><g transform="translate(-1246,-350) scale(1,1)"><path fill="none" stroke="#000000" d="M 1784 360 L 1943 360 L 1943 416 L 1784 416 L 1784 360 Z Z" stroke-miterlimit="10"/></g><g transform="translate(-1246,-350) scale(1,1)"><path fill="none" stroke="#000000" d="M 1784 398 L 1943 398" stroke-miterlimit="10"/></g><g transform="translate(-1246,-350) scale(1,1)"><g><path fill="none" stroke="none"/><text fill="#000000" stroke="none" font-family="Arial" font-size="13px" font-style="normal" font-weight="normal" text-decoration="none" x="1820.135986328125" y="377.5">«enumeration»</text></g></g><g transform="translate(-1246,-350) scale(1,1)"><g><path fill="none" stroke="none"/><text fill="#000000" stroke="none" font-family="Arial" font-size="13px" font-style="normal" font-weight="bold" text-decoration="none" x="1827.734130859375" y="392.5">TileTypeInfo</text></g></g><g transform="translate(-1246,-350) scale(1,1)"><rect fill="#C0C0C0" stroke="none" x="2687" y="1135" width="160" height="47" opacity="0.2"/></g><g transform="translate(-1246,-350) scale(1,1)"><rect fill="#ffffff" stroke="none" x="2680" y="1128" width="160" height="47"/></g><g transform="translate(-1246,-350) scale(1,1)"><path fill="none" stroke="#000000" d="M 2680 1128 L 2840 1128 L 2840 1175 L 2680 1175 L 2680 1128 Z Z" stroke-miterlimit="10"/></g><g transform="translate(-1246,-350) scale(1,1)"><path fill="none" stroke="#000000" d="M 2680 1153 L 2840 1153" stroke-miterlimit="10"/></g><g transform="translate(-1246,-350) scale(1,1)"><path fill="none" stroke="#000000" d="M 2680 1163 L 2840 1163" stroke-miterlimit="10"/></g><g transform="translate(-1246,-350) scale(1,1)"><g><path fill="none" stroke="none"/><text fill="#000000" stroke="none" font-family="Arial" font-size="13px" font-style="normal" font-weight="bold" text-decoration="none" x="2712.31005859375" y="1147.5">TextureManager</text></g></g><g transform="translate(-1246,-350) scale(1,1)"><rect fill="#C0C0C0" stroke="none" x="2687" y="1263" width="160" height="47" opacity="0.2"/></g><g transform="translate(-1246,-350) scale(1,1)"><rect fill="#ffffff" stroke="none" x="2680" y="1256" width="160" height="47"/></g><g transform="translate(-1246,-350) scale(1,1)"><path fill="none" stroke="#000000" d="M 2680 1256 L 2840 1256 L 2840 1303 L 2680 1303 L 2680 1256 Z Z" stroke-miterlimit="10"/></g><g transform="translate(-1246,-350) scale(1,1)"><path fill="none" stroke="#000000" d="M 2680 1281 L 2840 1281" stroke-miterlimit="10"/></g><g transform="translate(-1246,-350) scale(1,1)"><path fill="none" stroke="#000000" d="M 2680 1291 L 2840 1291" stroke-miterlimit="10"/></g><g transform="translate(-1246,-350) scale(1,1)"><g><path fill="none" stroke="none"/><text fill="#000000" stroke="none" font-family="Arial" font-size="13px" font-style="normal" font-weight="bold" text-decoration="none" x="2693.8828125" y="1275.5">SimpleGraphicsEngine</text></g></g><g transform="translate(-1246,-350) scale(1,1)"><rect fill="#C0C0C0" stroke="none" x="1551" y="807" width="207" height="48" opacity="0.2"/></g><g transform="translate(-1246,-350) scale(1,1)"><rect fill="#ffffff" stroke="none" x="1544" y="800" width="207" height="48"/></g><g transform="translate(-1246,-350) scale(1,1)"><path fill="none" stroke="#000000" d="M 1544 800 L 1751 800 L 1751 848 L 1544 848 L 1544 800 Z Z" stroke-miterlimit="10"/></g><g transform="translate(-1246,-350) scale(1,1)"><path fill="none" stroke="#000000" d="M 1544 825 L 1751 825" stroke-miterlimit="10"/></g><g transform="translate(-1246,-350) scale(1,1)"><path fill="none" stroke="#000000" d="M 1544 835 L 1751 835" stroke-miterlimit="10"/></g><g transform="translate(-1246,-350) scale(1,1)"><g><path fill="none" stroke="none"/><text fill="#000000" stroke="none" font-family="Arial" font-size="13px" font-style="italic" font-weight="bold" text-decoration="none" x="1606" y="819.5">AudioManager</text></g></g><g transform="translate(-1246,-350) scale(1,1)"><rect fill="#C0C0C0" stroke="none" x="1263" y="703" width="215" height="47" opacity="0.2"/></g><g transform="translate(-1246,-350) scale(1,1)"><rect fill="#ffffff" stroke="none" x="1256" y="696" width="215" height="47"/></g><g transform="translate(-1246,-350) scale(1,1)"><path fill="none" stroke="#000000" d="M 1256 696 L 1471 696 L 1471 743 L 1256 743 L 1256 696 Z Z" stroke-miterlimit="10"/></g><g transform="translate(-1246,-350) scale(1,1)"><path fill="none" stroke="#000000" d="M 1256 721 L 1471 721" stroke-miterlimit="10"/></g><g transform="translate(-1246,-350) scale(1,1)"><path fill="none" stroke="#000000" d="M 1256 731 L 1471 731" stroke-miterlimit="10"/></g><g transform="translate(-1246,-350) scale(1,1)"><g><path fill="none" stroke="none"/><text fill="#000000" stroke="none" font-family="Arial" font-size="13px" font-style="italic" font-weight="bold" text-decoration="none" x="1305.5" y="715.5">SoundtrackManager</text></g></g><g transform="translate(-1246,-350) scale(1,1)"><rect fill="#C0C0C0" stroke="none" x="1263" y="919" width="215" height="44" opacity="0.2"/></g><g transform="translate(-1246,-350) scale(1,1)"><rect fill="#ffffff" stroke="none" x="1256" y="912" width="215" height="44"/></g><g transform="translate(-1246,-350) scale(1,1)"><path fill="none" stroke="#000000" d="M 1256 912 L 1471 912 L 1471 956 L 1256 956 L 1256 912 Z Z" stroke-miterlimit="10"/></g><g transform="translate(-1246,-350) scale(1,1)"><path fill="none" stroke="#000000" d="M 1256 937 L 1471 937" stroke-miterlimit="10"/></g><g transform="translate(-1246,-350) scale(1,1)"><path fill="none" stroke="#000000" d="M 1256 947 L 1471 947" stroke-miterlimit="10"/></g><g transform="translate(-1246,-350) scale(1,1)"><g><path fill="none" stroke="none"/><text fill="#000000" stroke="none" font-family="Arial" font-size="13px" font-style="italic" font-weight="bold" text-decoration="none" x="1312.5" y="931.5">SoundFxManager</text></g></g><g transform="translate(-1246,-350) scale(1,1)"><rect fill="#C0C0C0" stroke="none" x="1551" y="551" width="207" height="44" opacity="0.2"/></g><g transform="translate(-1246,-350) scale(1,1)"><rect fill="#ffffff" stroke="none" x="1544" y="544" width="207" height="44"/></g><g transform="translate(-1246,-350) scale(1,1)"><path fill="none" stroke="#000000" d="M 1544 544 L 1751 544 L 1751 588 L 1544 588 L 1544 544 Z Z" stroke-miterlimit="10"/></g><g transform="translate(-1246,-350) scale(1,1)"><path fill="none" stroke="#000000" d="M 1544 569 L 1751 569" stroke-miterlimit="10"/></g><g transform="translate(-1246,-350) scale(1,1)"><path fill="none" stroke="#000000" d="M 1544 579 L 1751 579" stroke-miterlimit="10"/></g><g transform="translate(-1246,-350) scale(1,1)"><g><path fill="none" stroke="none"/><text fill="#000000" stroke="none" font-family="Arial" font-size="13px" font-style="normal" font-weight="bold" text-decoration="none" x="1578.49462890625" y="563.5">static GlobalReferences</text></g></g><g transform="translate(-1246,-350) scale(1,1)"><path fill="none" stroke="#000000" d="M 2352 1216 L 2175 1216" stroke-miterlimit="10"/></g><g transform="translate(-1246,-350) scale(1,1)"><path fill="#000000" stroke="none" d="M 2185.162674857624 1211.7904822439841 L 2175 1216 L 2185.162674857624 1220.2095177560159 L 2197 1216"/></g><g transform="translate(-1246,-350) scale(1,1)"><path fill="none" stroke="#000000" d="M 2185.162674857624 1211.7904822439841 L 2175 1216 L 2185.162674857624 1220.2095177560159 L 2197 1216 L 2185.162674857624 1211.7904822439841" stroke-miterlimit="10"/></g><g transform="translate(-1246,-350) scale(1,1)"><path fill="none" stroke="#000000" d="M 1856 1218 L 2016 1218" stroke-miterlimit="10"/></g><g transform="translate(-1246,-350) scale(1,1)"><path fill="#000000" stroke="none" d="M 2005.837325142376 1222.2095177560159 L 2016 1218 L 2005.837325142376 1213.7904822439841 L 1994 1218"/></g><g transform="translate(-1246,-350) scale(1,1)"><path fill="none" stroke="#000000" d="M 2005.837325142376 1222.2095177560159 L 2016 1218 L 2005.837325142376 1213.7904822439841 L 1994 1218 L 2005.837325142376 1222.2095177560159" stroke-miterlimit="10"/></g><g transform="translate(-1246,-350) scale(1,1)"><path fill="none" stroke="#000000" d="M 2096 1192 L 2096 856" stroke-miterlimit="10"/></g><g transform="translate(-1246,-350) scale(1,1)"><path fill="#000000" stroke="none" d="M 2100.209517756016 866.1626748576241 L 2096 856 L 2091.790482243984 866.1626748576241 L 2096 878"/></g><g transform="translate(-1246,-350) scale(1,1)"><path fill="none" stroke="#000000" d="M 2100.209517756016 866.1626748576241 L 2096 856 L 2091.790482243984 866.1626748576241 L 2096 878 L 2100.209517756016 866.1626748576241" stroke-miterlimit="10"/></g><g transform="translate(-1246,-350) scale(1,1)"><path fill="none" stroke="#000000" d="M 1751 832 L 1992 832" stroke-miterlimit="10"/></g><g transform="translate(-1246,-350) scale(1,1)"><path fill="#000000" stroke="none" d="M 1981.837325142376 836.209517756016 L 1992 832 L 1981.837325142376 827.790482243984 L 1970 832"/></g><g transform="translate(-1246,-350) scale(1,1)"><path fill="none" stroke="#000000" d="M 1981.837325142376 836.209517756016 L 1992 832 L 1981.837325142376 827.790482243984 L 1970 832 L 1981.837325142376 836.209517756016" stroke-miterlimit="10"/></g><g transform="translate(-1246,-350) scale(1,1)"><path fill="none" stroke="#000000" d="M 2089 524 L 2089 792" stroke-miterlimit="10"/></g><g transform="translate(-1246,-350) scale(1,1)"><path fill="#000000" stroke="none" d="M 2084.790482243984 781.8373251423759 L 2089 792 L 2093.209517756016 781.8373251423759 L 2089 770"/></g><g transform="translate(-1246,-350) scale(1,1)"><path fill="none" stroke="#000000" d="M 2084.790482243984 781.8373251423759 L 2089 792 L 2093.209517756016 781.8373251423759 L 2089 770 L 2084.790482243984 781.8373251423759" stroke-miterlimit="10"/></g><g transform="translate(-1246,-350) scale(1,1)"><path fill="none" stroke="#000000" d="M 2424 824 L 2200 824" stroke-miterlimit="10"/></g><g transform="translate(-1246,-350) scale(1,1)"><path fill="#FFFFFF" stroke="none" d="M 2210.162674857624 819.790482243984 L 2200 824 L 2210.162674857624 828.209517756016 L 2222 824"/></g><g transform="translate(-1246,-350) scale(1,1)"><path fill="none" stroke="#000000" d="M 2210.162674857624 819.790482243984 L 2200 824 L 2210.162674857624 828.209517756016 L 2222 824 L 2210.162674857624 819.790482243984" stroke-miterlimit="10"/></g><g transform="translate(-1246,-350) scale(1,1)"><path fill="none" stroke="#000000" d="M 1992 816 L 1872 816 L 1872 568 L 1751 568" stroke-miterlimit="10" stroke-dasharray="3"/></g><g transform="translate(-1246,-350) scale(1,1)"><path fill="none" stroke="#000000" d="M 1761.162674857624 563.790482243984 L 1751 568 L 1761.162674857624 572.209517756016" stroke-miterlimit="10"/></g><g transform="translate(-1246,-350) scale(1,1)"><path fill="none" stroke="#000000" d="M 1943 390 L 2040 390" stroke-miterlimit="10"/></g><g transform="translate(-1246,-350) scale(1,1)"><path fill="none" stroke="#000000" d="M 2088 412 L 2088 480" stroke-miterlimit="10"/></g><g transform="translate(-1246,-350) scale(1,1)"><path fill="#FFFFFF" stroke="none" d="M 2083.790482243984 469.83732514237585 L 2088 480 L 2092.209517756016 469.83732514237585 L 2088 458"/></g><g transform="translate(-1246,-350) scale(1,1)"><path fill="none" stroke="#000000" d="M 2083.790482243984 469.83732514237585 L 2088 480 L 2092.209517756016 469.83732514237585 L 2088 458 L 2083.790482243984 469.83732514237585" stroke-miterlimit="10"/></g><g transform="translate(-1246,-350) scale(1,1)"><path fill="none" stroke="#000000" d="M 1471 720 L 1648 720 L 1648 800" stroke-miterlimit="10"/></g><g transform="translate(-1246,-350) scale(1,1)"><path fill="#000000" stroke="none" d="M 1643.7904822439841 789.8373251423759 L 1648 800 L 1652.2095177560159 789.8373251423759 L 1648 778"/></g><g transform="translate(-1246,-350) scale(1,1)"><path fill="none" stroke="#000000" d="M 1643.7904822439841 789.8373251423759 L 1648 800 L 1652.2095177560159 789.8373251423759 L 1648 778 L 1643.7904822439841 789.8373251423759" stroke-miterlimit="10"/></g><g transform="translate(-1246,-350) scale(1,1)"><path fill="none" stroke="#000000" d="M 1471 936 L 1648 936 L 1648 848" stroke-miterlimit="10"/></g><g transform="translate(-1246,-350) scale(1,1)"><path fill="#000000" stroke="none" d="M 1652.2095177560159 858.1626748576241 L 1648 848 L 1643.7904822439841 858.1626748576241 L 1648 870"/></g><g transform="translate(-1246,-350) scale(1,1)"><path fill="none" stroke="#000000" d="M 1652.2095177560159 858.1626748576241 L 1648 848 L 1643.7904822439841 858.1626748576241 L 1648 870 L 1652.2095177560159 858.1626748576241" stroke-miterlimit="10"/></g><g transform="translate(-1246,-350) scale(1,1)"><path fill="none" stroke="#000000" d="M 1624 1218 L 1704 1218" stroke-miterlimit="10"/></g><g transform="translate(-1246,-350) scale(1,1)"><path fill="#FFFFFF" stroke="none" d="M 1683.6746502847518 1226.419035512032 L 1704 1218 L 1683.6746502847516 1209.580964487968"/></g><g transform="translate(-1246,-350) scale(1,1)"><path fill="none" stroke="#000000" d="M 1683.6746502847518 1226.419035512032 L 1704 1218 L 1683.6746502847516 1209.580964487968 L 1683.6746502847518 1226.419035512032" stroke-miterlimit="10"/></g><g transform="translate(-1246,-350) scale(1,1)"><path fill="none" stroke="#000000" d="M 2680 1152 L 2424 1152 L 2424 1192" stroke-miterlimit="10"/></g><g transform="translate(-1246,-350) scale(1,1)"><path fill="#000000" stroke="none" d="M 2419.790482243984 1181.837325142376 L 2424 1192 L 2428.209517756016 1181.837325142376 L 2424 1170"/></g><g transform="translate(-1246,-350) scale(1,1)"><path fill="none" stroke="#000000" d="M 2419.790482243984 1181.837325142376 L 2424 1192 L 2428.209517756016 1181.837325142376 L 2424 1170 L 2419.790482243984 1181.837325142376" stroke-miterlimit="10"/></g><g transform="translate(-1246,-350) scale(1,1)"><path fill="none" stroke="#000000" d="M 2680 1280 L 2424 1280 L 2424 1240" stroke-miterlimit="10"/></g><g transform="translate(-1246,-350) scale(1,1)"><path fill="#FFFFFF" stroke="none" d="M 2432.4190355120318 1260.3253497152482 L 2424 1240 L 2415.5809644879682 1260.3253497152482"/></g><g transform="translate(-1246,-350) scale(1,1)"><path fill="none" stroke="#000000" d="M 2432.4190355120318 1260.3253497152482 L 2424 1240 L 2415.5809644879682 1260.3253497152482 L 2432.4190355120318 1260.3253497152482" stroke-miterlimit="10"/></g><g transform="translate(-1246,-350) scale(1,1)"><path fill="none" stroke="#000000" d="M 2352 700 L 2352 760 L 2488 760 L 2488 800" stroke-miterlimit="10"/></g><g transform="translate(-1246,-350) scale(1,1)"><path fill="#FFFFFF" stroke="none" d="M 2483.790482243984 789.8373251423759 L 2488 800 L 2492.209517756016 789.8373251423759 L 2488 778"/></g><g transform="translate(-1246,-350) scale(1,1)"><path fill="none" stroke="#000000" d="M 2483.790482243984 789.8373251423759 L 2488 800 L 2492.209517756016 789.8373251423759 L 2488 778 L 2483.790482243984 789.8373251423759" stroke-miterlimit="10"/></g><g transform="translate(-1246,-350) scale(1,1)"><path fill="none" stroke="#000000" d="M 2616 700 L 2616 760 L 2488 760 L 2488 800" stroke-miterlimit="10"/></g><g transform="translate(-1246,-350) scale(1,1)"><path fill="#FFFFFF" stroke="none" d="M 2483.790482243984 789.8373251423759 L 2488 800 L 2492.209517756016 789.8373251423759 L 2488 778"/></g><g transform="translate(-1246,-350) scale(1,1)"><path fill="none" stroke="#000000" d="M 2483.790482243984 789.8373251423759 L 2488 800 L 2492.209517756016 789.8373251423759 L 2488 778 L 2483.790482243984 789.8373251423759" stroke-miterlimit="10"/></g><g transform="translate(-1246,-350) scale(1,1)"><path fill="none" stroke="#000000" d="M 2488 700 L 2488 800" stroke-miterlimit="10"/></g><g transform="translate(-1246,-350) scale(1,1)"><path fill="#FFFFFF" stroke="none" d="M 2483.790482243984 789.8373251423759 L 2488 800 L 2492.209517756016 789.8373251423759 L 2488 778"/></g><g transform="translate(-1246,-350) scale(1,1)"><path fill="none" stroke="#000000" d="M 2483.790482243984 789.8373251423759 L 2488 800 L 2492.209517756016 789.8373251423759 L 2488 778 L 2483.790482243984 789.8373251423759" stroke-miterlimit="10"/></g><g transform="translate(-1246,-350) scale(1,1)"><path fill="none" stroke="#000000" d="M 2848 824 L 2560 824" stroke-miterlimit="10"/></g><g transform="translate(-1246,-350) scale(1,1)"><path fill="#FFFFFF" stroke="none" d="M 2570.162674857624 819.790482243984 L 2560 824 L 2570.162674857624 828.209517756016 L 2582 824"/></g><g transform="translate(-1246,-350) scale(1,1)"><path fill="none" stroke="#000000" d="M 2570.162674857624 819.790482243984 L 2560 824 L 2570.162674857624 828.209517756016 L 2582 824 L 2570.162674857624 819.790482243984" stroke-miterlimit="10"/></g><g transform="translate(-1246,-350) scale(1,1)"><path fill="none" stroke="#000000" d="M 2848 824 L 2760 824 L 2760 392 L 2136 392" stroke-miterlimit="10"/></g><g transform="translate(-1246,-350) scale(1,1)"><path fill="#FFFFFF" stroke="none" d="M 2146.162674857624 387.790482243984 L 2136 392 L 2146.162674857624 396.209517756016 L 2158 392"/></g><g transform="translate(-1246,-350) scale(1,1)"><path fill="none" stroke="#000000" d="M 2146.162674857624 387.790482243984 L 2136 392 L 2146.162674857624 396.209517756016 L 2158 392 L 2146.162674857624 387.790482243984" stroke-miterlimit="10"/></g><g transform="translate(-1246,-350) scale(1,1)"><path fill="none" stroke="#000000" d="M 2915 746 L 2915 800" stroke-miterlimit="10"/></g><g transform="translate(-1246,-350) scale(1,1)"><path fill="none" stroke="#000000" d="M 2416 960 L 2416 920 L 2456 920 L 2456 848" stroke-miterlimit="10"/></g><g transform="translate(-1246,-350) scale(1,1)"><path fill="#FFFFFF" stroke="none" d="M 2464.4190355120318 868.3253497152483 L 2456 848 L 2447.5809644879682 868.3253497152483"/></g><g transform="translate(-1246,-350) scale(1,1)"><path fill="none" stroke="#000000" d="M 2464.4190355120318 868.3253497152483 L 2456 848 L 2447.5809644879682 868.3253497152483 L 2464.4190355120318 868.3253497152483" stroke-miterlimit="10"/></g><g transform="translate(-1246,-350) scale(1,1)"><path fill="none" stroke="#000000" d="M 2568 960 L 2568 920 L 2520 920 L 2520 848" stroke-miterlimit="10"/></g><g transform="translate(-1246,-350) scale(1,1)"><path fill="#FFFFFF" stroke="none" d="M 2528.4190355120318 868.3253497152483 L 2520 848 L 2511.5809644879682 868.3253497152483"/></g><g transform="translate(-1246,-350) scale(1,1)"><path fill="none" stroke="#000000" d="M 2528.4190355120318 868.3253497152483 L 2520 848 L 2511.5809644879682 868.3253497152483 L 2528.4190355120318 868.3253497152483" stroke-miterlimit="10"/></g><g transform="translate(-1246,-350) scale(1,1)"><path fill="none" stroke="#000000" d="M 2918 919 L 2917 849" stroke-miterlimit="10"/></g><g transform="translate(-1246,-350) scale(1,1)"><path fill="#FFFFFF" stroke="none" d="M 2925.7085090727796 869.2030163522508 L 2917 849 L 2908.8721559562878 869.4435356824864"/></g><g transform="translate(-1246,-350) scale(1,1)"><path fill="none" stroke="#000000" d="M 2925.7085090727796 869.2030163522508 L 2917 849 L 2908.8721559562878 869.4435356824864 L 2925.7085090727796 869.2030163522508" stroke-miterlimit="10"/></g><g transform="translate(-1246,-350) scale(1,1)"><path fill="none" stroke="#000000" d="M 2816 920 L 2816 896 L 2872 896 L 2872 848" stroke-miterlimit="10"/></g><g transform="translate(-1246,-350) scale(1,1)"><path fill="#FFFFFF" stroke="none" d="M 2880.4190355120318 868.3253497152483 L 2872 848 L 2863.5809644879682 868.3253497152483"/></g><g transform="translate(-1246,-350) scale(1,1)"><path fill="none" stroke="#000000" d="M 2880.4190355120318 868.3253497152483 L 2872 848 L 2863.5809644879682 868.3253497152483 L 2880.4190355120318 868.3253497152483" stroke-miterlimit="10"/></g><g transform="translate(-1246,-350) scale(1,1)"><path fill="none" stroke="#000000" d="M 3024 920 L 3024 896 L 2960 896 L 2960 848" stroke-miterlimit="10"/></g><g transform="translate(-1246,-350) scale(1,1)"><path fill="#FFFFFF" stroke="none" d="M 2968.4190355120318 868.3253497152483 L 2960 848 L 2951.5809644879682 868.3253497152483"/></g><g transform="translate(-1246,-350) scale(1,1)"><path fill="none" stroke="#000000" d="M 2968.4190355120318 868.3253497152483 L 2960 848 L 2951.5809644879682 868.3253497152483 L 2968.4190355120318 868.3253497152483" stroke-miterlimit="10"/></g></g></svg>